<svg width="424" height="984" viewBox="0 0 424 984" fill="none" xmlns="http://www.w3.org/2000/svg">
<path opacity="0.7" d="M108.289 984H-47V225.137C-34.4782 224.218 -23.5101 222.839 -12.5421 222.839C118.8 222.748 250.142 223.942 381.485 222.012C414.115 221.553 422.066 233.867 423.803 263.365C429.378 358.108 409.453 445.775 359.366 526.366C355.436 532.615 351.78 539.048 353.79 550.351C379.291 525.264 408.082 502.75 429.653 474.63C487.235 399.736 558.344 363.897 653.766 380.162C681.095 384.849 709.795 380.898 748 380.898C541.435 584.627 342.365 781.005 137.08 983.449C137.08 907.176 136.44 839.083 137.903 770.989C138.086 762.81 148.505 754.172 155.452 747.005C188.447 712.728 221.9 678.819 257.637 642.245C217.787 662.462 180.952 681.116 136.075 703.906C136.075 643.715 135.161 591.611 137.08 539.599C137.354 531.237 149.602 522.047 158.102 515.615C202.706 481.706 237.072 440.629 255.718 381.541H108.289V984V984Z" fill="#EFEFEF"/>
<path opacity="0.7" d="M-74.9458 708.817C-238.484 686.163 -417.589 520.615 -410.814 284.72C-404.77 74.4146 -233.998 -104.249 -25.3166 -119.749C223.288 -138.276 387.193 52.8613 411 195.297C361.737 195.297 312.932 196.672 264.401 194.104C254.97 193.554 244.073 178.696 237.755 168.057C160.839 39.1038 -0.0440808 -4.46147 -125.857 72.672C-215.226 127.427 -259.636 209.513 -254.142 314.62C-248.832 417.067 -197.005 492.274 -105.621 537.215C-80.623 549.505 -72.9314 562.896 -74.3049 588.943C-76.4109 628.748 -74.8543 668.645 -74.8543 709L-74.9458 708.817Z" fill="#EFEFEF"/>
</svg>
