<svg width="2169" height="2068" viewBox="0 0 2169 2068" fill="none" xmlns="http://www.w3.org/2000/svg">
<path opacity="0.7" d="M972.459 2068H682V647.87C705.421 646.15 725.936 643.571 746.451 643.571C992.119 643.399 1237.79 645.635 1483.46 642.023C1544.49 641.163 1559.36 664.207 1562.61 719.41C1573.04 896.711 1535.77 1060.77 1442.08 1211.59C1434.73 1223.28 1427.89 1235.32 1431.65 1256.47C1479.35 1209.52 1533.2 1167.39 1573.55 1114.77C1681.25 974.613 1814.26 907.545 1992.74 937.984C2043.86 946.754 2097.54 939.36 2169 939.36C1782.63 1320.62 1410.28 1688.12 1026.31 2066.97C1026.31 1924.23 1025.11 1796.8 1027.85 1669.37C1028.19 1654.07 1047.68 1637.9 1060.67 1624.49C1122.39 1560.34 1184.96 1496.89 1251.81 1428.44C1177.27 1466.28 1108.37 1501.19 1024.43 1543.83C1024.43 1431.19 1022.72 1333.69 1026.31 1236.35C1026.82 1220.7 1049.73 1203.51 1065.63 1191.47C1149.06 1128.01 1213.34 1051.14 1248.22 940.563H972.459V2068V2068Z" fill="#EFEFEF"/>
<path opacity="0.7" d="M629.182 1552.66C322.994 1510.27 -12.3372 1200.52 0.349162 759.137C11.664 365.637 331.395 31.3428 722.101 2.34085C1187.55 -32.3242 1494.43 325.309 1539 591.818C1446.77 591.818 1355.39 594.392 1264.53 589.587C1246.87 588.557 1226.47 560.757 1214.64 540.85C1070.63 299.568 769.417 218.053 533.862 362.377C366.54 464.827 283.392 618.417 293.679 815.081C303.622 1006.77 400.656 1147.49 571.75 1231.58C618.553 1254.57 632.953 1279.63 630.382 1328.36C626.439 1402.84 629.353 1477.49 629.353 1553L629.182 1552.66Z" fill="#EFEFEF"/>
</svg>
