<svg width="1181" height="306" viewBox="0 0 1181 306" fill="none" xmlns="http://www.w3.org/2000/svg">
<path d="M236.595 145.739C245.781 131.548 250.421 113.791 250.421 92.7742C250.421 0 164.915 0 136.937 0C129.995 0 120.369 0.632813 110.09 1.30398C103.475 1.74503 96.667 2.18608 91.6236 2.35867L0 1.32315V88.0185H25.3125V296.022L49.9155 299.857C60.2706 301.468 74.7103 303.002 89.4567 304.057L99.8886 304.901H100.33C112.296 305.629 122.977 305.994 132.929 305.994C135.882 305.994 138.778 305.994 141.788 305.994C144.799 305.994 147.541 305.994 150.494 305.994C156.747 306.049 162.997 305.729 169.21 305.035C184.354 302.926 198.977 298.03 212.338 290.595C242.751 273.509 259.492 245.167 259.492 210.784C259.549 183.861 251.821 161.943 236.595 145.739ZM121.021 85.6215C125.872 85.4297 130.168 85.3147 133.408 85.3147C155.557 85.3147 155.557 85.3147 155.557 96.6861C155.557 105.258 154.272 106.466 154.023 106.619C150.648 108.69 138.011 108.69 131.951 108.69H120.982L121.021 85.6215ZM156.899 219.567C151.837 220.89 144.243 220.89 136.573 220.89H134.847C130.225 220.89 125.45 220.89 120.829 220.583V194.408H132.124C163.208 194.408 163.208 196.958 163.208 207.659C163.247 213.699 159.162 218.608 156.899 219.567Z" fill="url(#paint0_linear_732_719)"/>
<path d="M186.011 149.382C196.808 145.221 221.276 136.093 221.276 92.7549C221.276 34.4594 177.171 29.0709 136.901 29.0709C126.316 29.0709 103.439 30.9885 90.8786 31.4487V58.2953C99.7188 57.5283 121.177 56.2435 133.411 56.2435C158.34 56.2435 184.631 57.8926 184.631 96.686C184.631 137.761 155.387 137.761 131.954 137.761H90.821V165.337H132.165C157.458 165.337 192.32 165.548 192.32 207.658C192.32 226.048 177.957 244.822 165.838 247.257L164.63 276.347C203.404 272.704 230.481 249.501 230.481 210.976C230.481 161.406 197.517 152.7 186.011 149.382Z" fill="url(#paint1_linear_732_719)"/>
<path d="M165.834 247.257C156.111 250.153 145.008 249.98 134.845 249.98C123.835 250.006 112.832 249.449 101.881 248.312L91.7178 246.854L92.0438 31.4487L29.0693 30.6817V58.9473H54.3819V271.131C63.7015 272.589 77.1823 274.027 91.7178 275.063L102.092 275.906C112.198 276.52 122.687 276.942 132.985 276.942C144.874 276.942 155.862 277.575 165.834 276.347V247.257Z" fill="white"/>
<path d="M191.282 270.288L177.955 275.139L165.836 276.348V247.257L179.163 238.762L191.282 218.167V270.288Z" fill="url(#paint2_linear_732_719)"/>
<path d="M452.315 156.787C452.315 178.068 447.424 195.188 437.641 208.145C427.858 221.017 414.729 227.453 398.253 227.453C380.662 227.453 367.061 221.232 357.45 208.789L356.291 224.879H334.409V27.1677H358.222V100.923C367.833 88.9953 381.091 83.0313 397.996 83.0313C414.901 83.0313 428.159 89.4243 437.77 102.21C447.467 114.996 452.315 132.502 452.315 154.727V156.787ZM428.502 154.084C428.502 137.865 425.37 125.337 419.106 116.498C412.841 107.659 403.831 103.24 392.075 103.24C376.371 103.24 365.087 110.534 358.222 125.122V185.362C365.516 199.95 376.886 207.244 392.332 207.244C403.745 207.244 412.627 202.825 418.977 193.986C425.327 185.148 428.502 171.847 428.502 154.084Z" fill="white"/>
<path d="M568.419 211.106C559.151 222.004 545.55 227.453 527.615 227.453C512.769 227.453 501.442 223.162 493.633 214.581C485.91 205.914 482.006 193.128 481.92 176.223V85.6057H505.733V175.58C505.733 196.689 514.314 207.244 531.477 207.244C549.669 207.244 561.768 200.465 567.775 186.907V85.6057H591.588V224.879H568.933L568.419 211.106Z" fill="white"/>
<path d="M650.283 205.442H731.762V224.879H621.193V207.373L698.038 105.3H622.351V85.6057H727.9V102.468L650.283 205.442Z" fill="white"/>
<path d="M781.061 205.442H862.539V224.879H751.97V207.373L828.815 105.3H753.129V85.6057H858.678V102.468L781.061 205.442Z" fill="white"/>
<path d="M935.394 192.57L969.89 85.6057H994.218L944.275 224.879H926.126L875.669 85.6057H899.996L935.394 192.57Z" fill="white"/>
<path d="M1073.12 227.453C1054.24 227.453 1038.88 221.274 1027.04 208.918C1015.2 196.475 1009.28 179.87 1009.28 159.104V154.727C1009.28 140.912 1011.9 128.598 1017.13 117.785C1022.45 106.887 1029.83 98.3917 1039.27 92.299C1048.79 86.1206 1059.09 83.0313 1070.16 83.0313C1088.27 83.0313 1102.34 88.9953 1112.38 100.923C1122.42 112.851 1127.44 129.928 1127.44 152.153V162.064H1033.09C1033.43 175.794 1037.42 186.907 1045.06 195.402C1052.78 203.812 1062.57 208.017 1074.41 208.017C1082.82 208.017 1089.94 206.3 1095.78 202.868C1101.61 199.435 1106.72 194.887 1111.09 189.224L1125.64 200.551C1113.97 218.486 1096.46 227.453 1073.12 227.453ZM1070.16 102.596C1060.55 102.596 1052.48 106.115 1045.96 113.151C1039.44 120.102 1035.41 129.885 1033.86 142.499H1103.63V140.697C1102.94 128.598 1099.68 119.244 1093.85 112.636C1088.01 105.943 1080.12 102.596 1070.16 102.596Z" fill="white"/>
<path d="M1180.99 224.879H1157.17V27.1677H1180.99V224.879Z" fill="white"/>
<defs>
<linearGradient id="paint0_linear_732_719" x1="227.352" y1="27.5945" x2="-7.88138" y2="262.828" gradientUnits="userSpaceOnUse">
<stop offset="0.26" stop-color="#FF1B43"/>
<stop offset="0.71" stop-color="#BE0000"/>
</linearGradient>
<linearGradient id="paint1_linear_732_719" x1="90.821" y1="152.7" x2="230.481" y2="152.7" gradientUnits="userSpaceOnUse">
<stop stop-color="#B3B3B3"/>
<stop offset="0.19" stop-color="white"/>
</linearGradient>
<linearGradient id="paint2_linear_732_719" x1="165.836" y1="247.257" x2="191.282" y2="247.257" gradientUnits="userSpaceOnUse">
<stop stop-opacity="0.25"/>
<stop offset="1" stop-opacity="0"/>
</linearGradient>
</defs>
</svg>
