<svg width="505" height="479" viewBox="0 0 505 479" fill="none" xmlns="http://www.w3.org/2000/svg">
<path d="M226.351 478.54H158.859V150.282C164.302 149.884 169.069 149.288 173.836 149.288C230.92 149.248 288.004 149.765 345.088 148.93C359.269 148.731 362.725 154.058 363.48 166.818C365.903 207.8 357.243 245.722 335.474 280.583C333.766 283.286 332.177 286.069 333.051 290.958C344.134 280.106 356.647 270.367 366.022 258.204C391.049 225.807 421.954 210.305 463.427 217.34C475.304 219.368 487.778 217.658 504.383 217.658C414.605 305.785 328.086 390.731 238.864 478.301C238.864 445.308 238.586 415.854 239.222 386.399C239.301 382.861 243.83 379.124 246.849 376.024C261.19 361.197 275.729 346.529 291.261 330.708C273.941 339.453 257.932 347.523 238.427 357.381C238.427 331.344 238.03 308.806 238.864 286.307C238.984 282.69 244.307 278.715 248.001 275.932C267.387 261.265 282.323 243.496 290.427 217.937H226.351V478.54Z" fill="#E63137"/>
<path d="M145.79 359.647C74.8423 349.828 -2.8587 278.079 0.0809058 175.841C2.70272 84.6936 76.7888 7.26002 167.321 0.542218C275.173 -7.48735 346.279 75.3523 356.608 137.085C335.236 137.085 314.063 137.681 293.009 136.568C288.917 136.329 284.19 129.89 281.449 125.279C248.081 69.3898 178.285 50.5084 123.703 83.9384C84.9323 107.669 65.666 143.246 68.0494 188.8C70.3534 233.201 92.8375 265.796 132.482 285.274C143.327 290.6 146.664 296.404 146.068 307.693C145.155 324.945 145.83 342.236 145.83 359.726L145.79 359.647Z" fill="#E63137"/>
</svg>
