<svg width="16" height="9" viewBox="0 0 16 9" fill="none" xmlns="http://www.w3.org/2000/svg">
<path d="M15.2666 2.03335L8.66665 8.63335C8.55554 8.74446 8.44442 8.82224 8.33331 8.86668C8.2222 8.91113 8.09998 8.93335 7.96665 8.93335C7.83331 8.93335 7.71109 8.91113 7.59998 8.86668C7.48887 8.82224 7.37776 8.74446 7.26665 8.63335L0.633313 2.00002C0.433313 1.80002 0.333313 1.56113 0.333313 1.28335C0.333313 1.00557 0.433312 0.766684 0.633313 0.566684C0.833312 0.366684 1.07776 0.272239 1.36665 0.28335C1.65553 0.294461 1.89998 0.400017 2.09998 0.600017L7.96665 6.46668L13.8666 0.566683C14.0666 0.366683 14.3 0.266683 14.5666 0.266683C14.8333 0.266683 15.0666 0.366683 15.2666 0.566683C15.4666 0.766683 15.5666 1.01113 15.5666 1.30002C15.5666 1.58891 15.4666 1.83335 15.2666 2.03335Z" fill="#E67E22"/>
</svg>
