<svg width="237" height="279" viewBox="0 0 237 279" fill="none" xmlns="http://www.w3.org/2000/svg">
<path d="M215.719 132.879C224.094 119.941 228.325 103.751 228.325 84.5882C228.325 0 150.364 0 124.854 0C118.525 0 109.748 0.576976 100.376 1.18892C94.3444 1.59106 88.1375 1.99319 83.5392 2.15055L0 1.20641V80.2522H23.0791V269.903L45.5112 273.399C54.9526 274.868 68.1182 276.267 81.5635 277.228L91.0749 277.998H91.477C102.387 278.662 112.126 278.994 121.2 278.994C123.893 278.994 126.533 278.994 129.278 278.994C132.023 278.994 134.523 278.994 137.216 278.994C142.916 279.045 148.615 278.753 154.28 278.12C168.088 276.197 181.42 271.733 193.602 264.955C221.332 249.376 236.595 223.535 236.595 192.186C236.648 167.638 229.602 147.654 215.719 132.879ZM110.342 78.0667C114.766 77.8918 118.682 77.7869 121.637 77.7869C141.831 77.7869 141.831 77.7869 141.831 88.155C141.831 95.9704 140.66 97.0719 140.433 97.2118C137.355 99.1001 125.833 99.1001 120.308 99.1001H110.307L110.342 78.0667ZM143.055 200.193C138.439 201.4 131.516 201.4 124.522 201.4H122.948C118.735 201.4 114.381 201.4 110.168 201.12V177.254H120.466C148.807 177.254 148.807 179.58 148.807 189.336C148.842 194.843 145.118 199.319 143.055 200.193Z" fill="url(#paint0_linear_3829_1308)"/>
<path d="M169.6 136.2C179.443 132.406 201.753 124.084 201.753 84.5697C201.753 31.4179 161.54 26.5049 124.823 26.5049C115.172 26.5049 94.3132 28.2533 82.861 28.6729V53.1507C90.9212 52.4513 110.486 51.2799 121.641 51.2799C144.37 51.2799 168.341 52.7835 168.341 88.154C168.341 125.605 141.678 125.605 120.312 125.605H82.8086V150.747H120.504C143.566 150.747 175.352 150.94 175.352 189.335C175.352 206.102 162.257 223.219 151.207 225.439L150.105 251.963C185.458 248.641 210.146 227.485 210.146 192.359C210.146 147.163 180.09 139.225 169.6 136.2Z" fill="url(#paint1_linear_3829_1308)"/>
<path d="M151.203 225.44C142.338 228.08 132.215 227.923 122.948 227.923C112.91 227.946 102.878 227.438 92.8931 226.402L83.6265 225.073L83.9238 28.6735L26.5059 27.9741V53.7457H49.5849V247.208C58.0822 248.536 70.3736 249.848 83.6265 250.792L93.0854 251.561C102.3 252.121 111.863 252.505 121.252 252.505C132.093 252.505 142.111 253.082 151.203 251.963V225.44Z" fill="white"/>
<path d="M174.406 246.438L162.254 250.861L151.204 251.963V225.439L163.356 217.694L174.406 198.916V246.438Z" fill="url(#paint2_linear_3829_1308)"/>
<defs>
<linearGradient id="paint0_linear_3829_1308" x1="207.292" y1="25.1597" x2="-7.18597" y2="239.638" gradientUnits="userSpaceOnUse">
<stop offset="0.26" stop-color="#FF1B43"/>
<stop offset="0.71" stop-color="#BE0000"/>
</linearGradient>
<linearGradient id="paint1_linear_3829_1308" x1="82.8086" y1="139.225" x2="210.146" y2="139.225" gradientUnits="userSpaceOnUse">
<stop stop-color="#B3B3B3"/>
<stop offset="0.19" stop-color="white"/>
</linearGradient>
<linearGradient id="paint2_linear_3829_1308" x1="151.204" y1="225.439" x2="174.406" y2="225.439" gradientUnits="userSpaceOnUse">
<stop stop-opacity="0.25"/>
<stop offset="1" stop-opacity="0"/>
</linearGradient>
</defs>
</svg>
